/* XPM */
static char *bokken[] = {
/* columns rows colors chars-per-pixel */
"32 24 155 2 ",
"   c #137C137C137C",
".  c #1B6B1B6B1B6B",
"X  c #3A282E511D2A",
"o  c #224D22482241",
"O  c #2DA52D9D2D94",
"+  c #303928FF1FC8",
"@  c #30572CE6289D",
"#  c #3DE131B4223C",
"$  c #36ED32782CBC",
"%  c #34E634D134AC",
"&  c #3E373A963532",
"*  c #3B423B3F3B36",
"=  c #433C3D06336D",
"-  c #4F7A43AE2636",
";  c #5A2143C9275B",
":  c #5E3A48582C8B",
">  c #4F4A4A02354A",
",  c #505A449632A0",
"<  c #5ACC4C1A3691",
"1  c #52AC4E5B3A05",
"2  c #58464D853DC3",
"3  c #5E1C53EF3C18",
"4  c #5F7E57FF38D3",
"5  c #648E4BFB2C1C",
"6  c #64D9520D3768",
"7  c #6AD6549C341E",
"8  c #6C165666387D",
"9  c #6E7059C83C04",
"0  c #757D5B2E3500",
"q  c #7E1D63F33D4D",
"w  c #447E4476444D",
"e  c #4C564A5343D9",
"r  c #4C164C0D4BE5",
"t  c #51CC4F9C4982",
"y  c #51CF51CB51C5",
"u  c #5E9B5A7753B5",
"i  c #5C465BED5B67",
"p  c #73DA5ECB4258",
"a  c #60285E3F5AC4",
"s  c #6E2166D045D5",
"d  c #72B8624646AF",
"f  c #703E601847FB",
"g  c #73106BF74954",
"h  c #7BEA6A3A4F20",
"j  c #7EF376044AA2",
"k  c #62D261325E7A",
"l  c #79DC6FAB5510",
"z  c #76FE6C175B60",
"x  c #79EC6D3259CA",
"c  c #7CB2745E529E",
"v  c #631962E4627B",
"b  c #6A9367126074",
"n  c #6DFD6A576407",
"m  c #6BC46B0469E8",
"M  c #71A86D8E654C",
"N  c #71726F536C39",
"B  c #73DD713F6CBF",
"V  c #786377EF775A",
"C  c #7BDD7AB577D2",
"Z  c #7DA47D287C74",
"A  c #812567BD37A9",
"S  c #90B66F2E3ECE",
"D  c #8B216D834252",
"F  c #8C5772C147E4",
"G  c #9DFB785344C4",
"H  c #9748772F49C2",
"J  c #9ED37D414EA7",
"K  c #82FB6E7F51C1",
"L  c #88F3732651C6",
"P  c #8A387D9D56D1",
"I  c #8CBB78805983",
"U  c #91FC7B4A5352",
"Y  c #A3307E4E4B7D",
"T  c #944B811B44E7",
"R  c #8AF280E84FEF",
"E  c #8B4D815B5B24",
"W  c #A70381E54E9D",
"Q  c #A86E83284EB3",
"!  c #AF3B89F24A71",
"~  c #AC40997C4F2E",
"^  c #A538841E5217",
"/  c #AAD787B55206",
"(  c #AAEF89985488",
")  c #BCBF9A4750E8",
"_  c #BDC59D955C1B",
"`  c #B562A37D55E7",
"'  c #9CEA8CE76425",
"]  c #830E81707F14",
"[  c #930987A87639",
"{  c #94A88B177C41",
"}  c #AC839EC66652",
"|  c #AC8B93CD6CF1",
" . c #A9E0936570DD",
".. c #BCE3A4047BAB",
"X. c #C323A4175B9E",
"o. c #C59FABAD5B28",
"O. c #C953ACCB5C1C",
"+. c #CBC3B2465D3F",
"@. c #CAFDAFD86556",
"#. c #CDC3B56D6696",
"$. c #CF18BA2D645F",
"%. c #CEC9B57B6CF3",
"&. c #CB2CB938696B",
"*. c #C7F6B8057F84",
"=. c #CF27BDF47B90",
"-. c #D1AABFF57197",
";. c #D2FAC0ED6F74",
":. c #D6A1C3CC7A4D",
">. c #846E843E83F4",
",. c #89C088FB87BA",
"<. c #8D448CA88BB1",
"1. c #90AA8FA18E1A",
"2. c #955F955D955C",
"3. c #9FD79FD79FD7",
"4. c #AA31A1D48D60",
"5. c #AD7CA35B9079",
"6. c #A74EA4699B80",
"7. c #AC1EA7F39CA2",
"8. c #B9A1ADCC97A2",
"9. c #B221A9769BB3",
"0. c #A2AAA29AA284",
"q. c #AD63AD55AD3F",
"w. c #BE37B646A908",
"e. c #B44AB44AB44A",
"r. c #BA91BA8FBA8E",
"t. c #C966B339913D",
"y. c #C942BBE09451",
"u. c #D9A1C6FA81DE",
"i. c #DDD2CCBB8DA9",
"p. c #DC4CCBD095E1",
"a. c #D8A8C9A49BD8",
"s. c #E1AFD1409B58",
"d. c #CA2CC57FBE4D",
"f. c #E3E9D25BA417",
"g. c #E965DA46AF6A",
"h. c #ECA8DE8BBA57",
"j. c #EE09E090BDBB",
"k. c #C3EEC3EDC3EC",
"l. c #CBFBCBFBCBFB",
"z. c #D573CDEEC0F1",
"x. c #D58DD546D4DB",
"c. c #DBA7DBA7DBA7",
"v. c #F176E4B2C63C",
"b. c #EFEBE703D7B8",
"n. c #E699E257DA4A",
"m. c #F5EBEB27D449",
"M. c #F604ECB3DC15",
"N. c #F8ABF00EDFD8",
"B. c #E508E508E508",
"V. c #EECAEA81E2B9",
"C. c #EA93EA93EA93",
"Z. c #F56EEDDBE12A",
"A. c #FAE4F59AEC65",
"S. c #F45BF45BF45B",
"D. c #FFD5FFD5FFD5",
/* pixels */
"D.D.D.D.c.B m S.D.D.D.D.D.D.D.D.D.D.D.D.D.D.D.D.C.i Z C.D.D.D.D.",
"D.D.S.V # K | <.D.D.D.D.D.D.D.D.D.D.D.D.D.D.D.D.n ..p # 1.D.D.D.",
"D.x.& 5 ' 5.i % B.D.D.D.D.D.D.D.D.D.D.D.D.D.D.k.% k 8.U ; e C.D.",
"x.+ A ` ' v r y v D.D.D.D.D.D.D.D.D.D.D.D.D.D.w y r v } ~ 0 $ C.",
"<.0 F 1 r * r y O k.D.D.D.D.D.D.D.D.D.D.D.D.2.* y r * w 3 F : e.",
"x.o % % * w u b w * S.D.D.D.D.D.D.D.D.D.D.C.O w M t w * * % @ S.",
"D.>.o % * R *.v i * ,.D.D.D.D.D.D.D.D.D.D.v w k N =.g % %   q.D.",
"D.S.* o = s e y i r o c.x.S.D.D.D.D.C.B.e.o y i y e s % . k D.D.",
"D.D.c.. O % % w y y w % v >.D.D.D.D.v v o r y y > % * o O C.D.D.",
"D.D.D.q.. % * r E n r e.l.r B.D.D.k.a c.2.y M c w * O . l.D.D.D.",
"D.D.D.D.C   * 4 g y q.l.q.m D.D.D.D.r k.l.0.r j > %   0.D.D.D.D.",
"D.D.D.D.D.i o * y 2.0.r.d.& D.D.D.C.= x.e.0.1.r * . >.D.D.D.D.D.",
"D.D.D.D.D.S.* r y V 0.7.V.| <.D.D.M t.n.6.3.m y w i D.D.D.D.D.D.",
"D.D.D.D.D.l.y w r y P -.h.A.L q.,. .A.g.&.l i * i w C.D.D.D.D.D.",
"D.D.D.D.D.D.v * r 9 W +.:.v.M., I A.h.;.O.Y 3 r % >.D.D.D.D.D.D.",
"D.D.D.D.D.D.S.C.r.n H Q +.:.4.h Z.h.;.O.Y D Z k.B.D.D.D.D.D.D.D.",
"D.D.D.D.D.D.D.D.D.D.B D Q T d N.h.&.o.Y q 1.D.D.D.D.D.D.D.D.D.D.",
"D.D.D.D.D.D.D.D.D.D.D.] ; f M.g.-.X.G 8 0.D.D.D.D.D.D.D.D.D.D.D.",
"D.D.D.D.D.D.D.D.D.D.D.q.x b.f.$.) Y < 2 k.D.D.D.D.D.D.D.D.D.D.D.",
"D.D.D.D.D.D.D.D.D.D.1.[ N.s.O.! S - y.M.z q.D.D.D.D.D.D.D.D.D.D.",
"D.D.D.D.D.D.D.D.S.m 9.m.i.@.( 7 X / #.s.M.{ >.D.D.D.D.D.D.D.D.D.",
"D.D.D.D.D.D.D.c.i z.j.:._ H 2 r.0.< J X.u.v.w.k C.D.D.D.D.D.D.D.",
"D.D.D.D.D.D.D.l.n p.@.^ 6 ] S.D.D.B.N 8 ( %.a.a B.D.D.D.D.D.D.D.",
"D.D.D.D.D.D.D.D.x.N u Z c.D.D.D.D.D.D.l.B u Z C.D.D.D.D.D.D.D.D."
};
